<?xml version="1.0" encoding="UTF-8"?>
<svg id="Layer_2" xmlns="http://www.w3.org/2000/svg" viewBox="0 0 382.69 48.7">
  <g id="Layer_1-2" data-name="Layer_1">
    <g>
      <g>
        <path d="M20.35,7.47l.54,8.09h-.54c-.36-1.21-.8-2.24-1.33-3.11s-1.11-1.57-1.78-2.12-1.4-.95-2.21-1.21-1.69-.39-2.63-.39c-1.59,0-3,.39-4.23,1.17s-2.21,1.97-2.93,3.59c-.4.89-.7,1.9-.91,3.03s-.32,2.4-.32,3.8c0,2.14.35,4.01,1.04,5.6.35.81.79,1.52,1.33,2.12s1.14,1.12,1.82,1.53,1.42.72,2.22.93,1.64.32,2.5.32c.98,0,1.83-.1,2.55-.3s1.36-.5,1.95-.91,1.15-.92,1.69-1.54,1.14-1.35,1.8-2.18l.54.35c-.6,1.05-1.24,1.97-1.93,2.74s-1.44,1.41-2.25,1.91-1.68.87-2.62,1.11-1.96.36-3.05.36c-3.96,0-7.01-1.46-9.16-4.39-1.61-2.18-2.42-4.74-2.42-7.69,0-1.42.19-2.79.58-4.12s.98-2.55,1.79-3.68c.56-.8,1.2-1.51,1.92-2.13s1.5-1.15,2.33-1.58,1.72-.75,2.64-.97,1.87-.33,2.84-.33c1.72,0,3.42.42,5.09,1.26.51.27.87.4,1.05.39.37,0,.69-.16.94-.47s.43-.71.54-1.18h.61Z"/>
        <path d="M39.13,23.85h-9.22l-1.61,3.76c-.4.91-.6,1.6-.6,2.07,0,.19.03.36.1.52s.2.3.39.44.48.25.84.33.84.16,1.42.2v.65h-7.5v-.65c.98-.18,1.63-.4,1.93-.68s.62-.71.94-1.27.67-1.28,1.04-2.15l8.37-19.59h.61l8.29,19.8c.34.82.65,1.48.94,1.97s.58.88.89,1.16.63.47.99.57.78.17,1.27.19v.65h-9.39v-.65c.47-.02.86-.08,1.18-.16s.56-.19.75-.32.31-.28.39-.44.11-.35.11-.54c.01-.26-.04-.59-.17-.99s-.3-.89-.54-1.45l-1.44-3.42ZM38.64,22.55l-4.04-9.62-4.14,9.62h8.18Z"/>
        <path d="M69.25,25.23l.58.12-2.04,6.46h-18.43v-.65h.9c.99,0,1.71-.33,2.16-.98.25-.36.37-1.23.37-2.6v-15.36c0-1.5-.16-2.43-.49-2.79-.46-.51-1.14-.77-2.04-.77h-.9v-.65h10.78v.65c-.64,0-1.18.03-1.61.09s-.78.15-1.05.26-.49.25-.65.41-.29.33-.39.52c-.19.36-.28,1.26-.28,2.69v14.96c0,.41.01.76.04,1.05s.08.54.15.73.16.35.28.47.27.22.46.29c.28.12,1.19.18,2.74.18h1.74c1.81,0,3.1-.13,3.84-.4.37-.13.73-.3,1.05-.53s.65-.52.96-.89.61-.82.91-1.34.61-1.16.92-1.91Z"/>
        <path d="M92.83,8.01v.65c-.5.09-.93.23-1.29.4s-.67.4-.94.68-.51.62-.71,1.01-.41.84-.62,1.34l-8.3,20.26h-.65l-8.92-20.52c-.47-1.08-.79-1.72-.97-1.93-.29-.36-.65-.65-1.07-.85s-1-.34-1.74-.39v-.65h9.73v.65c-.56.06-1.02.13-1.36.23s-.61.21-.8.34-.31.29-.38.46-.1.36-.1.57c0,.6.27,1.51.81,2.74l6.06,13.96,5.62-13.78c.55-1.37.83-2.31.83-2.83,0-.36-.19-.71-.57-1.03s-1.03-.54-1.96-.66v-.65h7.34Z"/>
        <path d="M105.08,23.85h-9.22l-1.61,3.76c-.4.91-.6,1.6-.6,2.07,0,.19.03.36.1.52s.2.3.39.44.48.25.84.33.84.16,1.42.2v.65h-7.5v-.65c.98-.18,1.63-.4,1.93-.68s.62-.71.94-1.27.67-1.28,1.04-2.15l8.37-19.59h.61l8.29,19.8c.34.82.65,1.48.94,1.97s.58.88.89,1.16.63.47.99.57.78.17,1.27.19v.65h-9.39v-.65c.47-.02.86-.08,1.18-.16s.56-.19.75-.32.31-.28.39-.44.11-.35.11-.54c.01-.26-.04-.59-.17-.99s-.3-.89-.54-1.45l-1.44-3.42ZM104.59,22.55l-4.04-9.62-4.14,9.62h8.18Z"/>
        <path d="M138.89,31.82h-6.35l-8.06-11.13c-.3.01-.58.02-.82.03s-.45,0-.64,0c-.15,0-.32,0-.49,0s-.36-.01-.54-.03v6.92c0,1.5.16,2.43.49,2.79.44.51,1.11.77,2,.77h.93v.65h-10.2v-.65h.9c.99,0,1.71-.33,2.16-.98.25-.36.37-1.22.37-2.58v-15.38c0-1.5-.16-2.43-.49-2.79-.46-.51-1.14-.77-2.04-.77h-.9v-.65h8.67c2.5,0,4.37.19,5.58.56.6.18,1.16.44,1.68.79s.98.77,1.37,1.25.7,1.02.93,1.61.34,1.23.34,1.91c0,.74-.12,1.42-.35,2.06s-.59,1.22-1.08,1.75-1.1.98-1.83,1.37-1.6.69-2.6.91l4.92,6.83c1.14,1.58,2.1,2.62,2.9,3.12.82.51,1.87.84,3.16.98v.65ZM121.98,19.58c.22,0,.42,0,.58,0s.3,0,.4,0c1.14,0,2.13-.13,2.99-.39s1.58-.63,2.15-1.1,1-1.02,1.29-1.66.43-1.33.43-2.08-.12-1.41-.37-2.03-.59-1.14-1.04-1.59-.99-.79-1.61-1.04-1.31-.37-2.06-.37c-.34,0-.74.03-1.19.08s-.98.14-1.56.25v9.9Z"/>
        <path d="M153.72,8.01h8.3v.65h-.46c-.14,0-.33.04-.57.11s-.49.17-.76.3-.54.29-.83.49-.54.42-.77.67c-.25.26-.51.59-.8,1s-.61.9-.97,1.46l-5.74,9.04v5.97c0,1.46.16,2.38.49,2.74.43.49,1.14.74,2.11.74h.77v.65h-10.11v-.65h.84c1.01,0,1.72-.3,2.14-.91.26-.36.39-1.22.39-2.56v-5.63l-6.53-9.97c-.39-.6-.71-1.07-.97-1.43s-.47-.61-.61-.76c-.07-.07-.19-.17-.35-.31s-.37-.27-.61-.41-.52-.26-.82-.36-.61-.15-.94-.15v-.65h10.18v.65h-.53c-.26,0-.52.03-.78.09s-.5.15-.71.28-.38.29-.52.48-.2.42-.2.69c0,.42.36,1.18,1.07,2.28l4.97,7.67,4.67-7.34c.7-1.1,1.05-1.92,1.05-2.46-.02-.25-.08-.47-.16-.68s-.21-.39-.39-.54-.42-.27-.72-.35-.68-.12-1.14-.12v-.65Z"/>
        <path d="M177.72,9.31v9.41h5.23c.76,0,1.38-.07,1.85-.2s.85-.35,1.11-.63.46-.65.56-1.08.18-.95.21-1.54h.65v8.29h-.65c-.08-.59-.16-1.06-.25-1.43s-.16-.63-.25-.8c-.11-.21-.24-.39-.4-.55s-.37-.3-.63-.41-.57-.2-.93-.26-.79-.09-1.28-.09h-5.23v7.85c0,1.04.05,1.69.14,1.93.05.11.11.2.18.3s.17.17.31.24.31.11.53.15.49.05.82.05h4.04c.69,0,1.27-.02,1.73-.06s.87-.11,1.21-.21.65-.24.91-.42.54-.41.83-.69c.36-.35.73-.8,1.11-1.35s.75-1.19,1.12-1.93h.7l-2.05,5.97h-18.34v-.65h.84c.22,0,.46-.02.7-.07s.48-.12.69-.23.41-.24.59-.39.3-.34.37-.55c.14-.36.21-1.13.21-2.3v-15.47c0-1.5-.15-2.43-.46-2.79-.42-.47-1.12-.7-2.11-.7h-.84v-.65h18.34v5.21h-.42c-.13-.63-.26-1.15-.39-1.56s-.28-.75-.44-1.02-.35-.48-.56-.64-.46-.3-.75-.43c-.48-.18-1.3-.26-2.48-.26h-6.53Z"/>
        <path d="M206.84,18.63l5.11,7.62c.71,1.06,1.33,1.93,1.85,2.59s.95,1.13,1.29,1.41c.68.55,1.55.85,2.62.91v.65h-10.22v-.65c.81-.02,1.4-.15,1.78-.37s.57-.55.57-.98c0-.15,0-.27,0-.36s-.02-.2-.09-.34-.18-.33-.33-.58-.39-.6-.71-1.07l-4.04-6.11-4.99,6.39c-.28.35-.49.63-.64.84s-.25.39-.32.53-.11.26-.12.36-.02.21-.02.34c0,.19.04.36.11.52s.19.3.37.41.41.21.7.29.66.12,1.11.13v.65h-8.44v-.65c.74-.06,1.39-.23,1.96-.53s1.12-.65,1.66-1.07c.67-.53,1.42-1.32,2.25-2.37l5.62-7.09-4.69-6.86c-1.29-1.86-2.37-3.08-3.25-3.65-.9-.59-1.93-.9-3.07-.93v-.65h11.01v.65c-.47.02-.86.08-1.18.16s-.57.18-.75.31-.32.26-.39.41-.11.31-.11.47c0,.44.28,1.08.84,1.9l3.65,5.46,4.23-5.35c.26-.33.46-.59.61-.79s.25-.37.32-.51.11-.26.12-.37.02-.22.02-.35c0-.27-.09-.51-.26-.72s-.38-.36-.61-.44c-.13-.05-.33-.08-.61-.11s-.63-.05-1.05-.06v-.65h8.44v.65c-.4.02-.75.07-1.07.15s-.61.17-.87.29-.51.26-.75.42-.46.35-.68.54c-.5.44-1.25,1.29-2.23,2.53l-4.72,6.04Z"/>
        <path d="M231.28,7.47c3.08,0,5.75,1.18,8.02,3.53,2.27,2.34,3.41,5.27,3.41,8.78s-1.14,6.62-3.42,9.01-5.04,3.58-8.29,3.58-6.04-1.16-8.27-3.49-3.34-5.34-3.34-9.04,1.29-6.86,3.86-9.25c2.24-2.07,4.91-3.11,8.02-3.11ZM230.94,8.75c-1.21,0-2.28.26-3.21.77s-1.72,1.25-2.36,2.2-1.12,2.11-1.46,3.47-.5,2.88-.5,4.56.16,3.21.49,4.6.81,2.59,1.45,3.59,1.42,1.78,2.36,2.33,2.02.83,3.25.83c1.1,0,2.12-.21,3.06-.63s1.76-1.07,2.45-1.96,1.23-2.01,1.62-3.38.59-3,.59-4.9-.16-3.43-.48-4.85-.81-2.62-1.46-3.61-1.46-1.73-2.42-2.26-2.09-.78-3.38-.78Z"/>
        <path d="M264.89,8.01v5.58h-.4c-.09-.75-.25-1.38-.47-1.9s-.5-.94-.85-1.26-.78-.56-1.28-.7-1.09-.22-1.76-.22h-3.35v18.19c0,1.46.16,2.38.47,2.74.43.49,1.12.74,2.05.74h.83v.65h-10.09v-.65h.84c1.01,0,1.72-.3,2.14-.91.26-.36.39-1.22.39-2.56V9.51h-2.86c-.73,0-1.36.05-1.9.16s-.99.3-1.37.6-.68.71-.91,1.25-.41,1.23-.53,2.09h-.67v-5.58h19.71Z"/>
        <path d="M277.15,31.17v.65h-10.2v-.65h.84c.99,0,1.71-.29,2.14-.86.28-.36.42-1.26.42-2.7v-15.38c0-.56-.01-1.02-.04-1.37s-.07-.64-.13-.87-.16-.41-.28-.54-.29-.25-.5-.37c-.51-.28-1.05-.42-1.61-.42h-.84v-.65h10.2v.65h-.86c-.98,0-1.69.29-2.12.86-.29.36-.44,1.26-.44,2.7v15.38c0,.56.01,1.02.04,1.37s.07.64.13.86.16.4.29.54.3.26.51.38c.5.28,1.04.42,1.6.42h.86Z"/>
        <path d="M299.67,7.47l.54,8.09h-.54c-.36-1.21-.8-2.24-1.33-3.11s-1.11-1.57-1.78-2.12-1.4-.95-2.21-1.21-1.69-.39-2.63-.39c-1.59,0-3,.39-4.23,1.17s-2.21,1.97-2.93,3.59c-.4.89-.7,1.9-.91,3.03s-.32,2.4-.32,3.8c0,2.14.35,4.01,1.04,5.6.35.81.79,1.52,1.33,2.12s1.14,1.12,1.82,1.53,1.42.72,2.22.93,1.64.32,2.5.32c.98,0,1.83-.1,2.55-.3s1.36-.5,1.95-.91,1.15-.92,1.69-1.54,1.14-1.35,1.8-2.18l.54.35c-.6,1.05-1.24,1.97-1.93,2.74s-1.44,1.41-2.25,1.91-1.68.87-2.62,1.11-1.96.36-3.05.36c-3.96,0-7.01-1.46-9.16-4.39-1.61-2.18-2.42-4.74-2.42-7.69,0-1.42.19-2.79.58-4.12s.98-2.55,1.79-3.68c.56-.8,1.2-1.51,1.92-2.13s1.5-1.15,2.33-1.58,1.72-.75,2.64-.97,1.87-.33,2.84-.33c1.72,0,3.42.42,5.09,1.26.51.27.87.4,1.05.39.37,0,.69-.16.94-.47s.43-.71.54-1.18h.61Z"/>
        <path d="M318.49,7.47v8.23h-.65c-.21-1.58-.59-2.84-1.14-3.77-.27-.47-.61-.89-1.01-1.26s-.84-.69-1.32-.96-.98-.47-1.51-.61-1.07-.22-1.61-.22c-.6,0-1.15.1-1.67.31s-.96.48-1.34.82-.68.73-.89,1.17-.32.89-.32,1.36c0,.66.15,1.23.46,1.71s.72.93,1.26,1.34,1.16.81,1.88,1.19,1.5.8,2.34,1.25c.95.5,1.85.99,2.7,1.47s1.61,1.01,2.26,1.59,1.17,1.24,1.55,1.98.58,1.64.58,2.68c0,.89-.18,1.73-.55,2.54s-.88,1.5-1.54,2.11-1.45,1.08-2.37,1.44-1.93.54-3.03.54c-.41,0-.76,0-1.05-.02s-.57-.04-.84-.08-.55-.11-.83-.19-.63-.21-1.03-.36c-.28-.11-.57-.2-.86-.29s-.56-.16-.81-.22-.45-.11-.62-.14-.28-.05-.32-.05c-.29,0-.52.09-.69.26s-.3.54-.38,1.09h-.65v-8.16h.65c.15.85.33,1.6.54,2.24s.44,1.17.69,1.61c.26.42.59.81,1,1.18s.87.68,1.38.94,1.06.47,1.65.61,1.2.22,1.82.22c.74,0,1.4-.11,1.98-.32s1.08-.49,1.49-.85.72-.77.94-1.25.32-.97.32-1.48c0-.76-.16-1.4-.47-1.92s-.74-.99-1.27-1.4-1.15-.8-1.86-1.18-1.45-.8-2.24-1.26c-.89-.53-1.75-1.03-2.57-1.5s-1.55-.99-2.19-1.56-1.14-1.21-1.52-1.94-.57-1.59-.57-2.6c0-.84.18-1.64.53-2.4s.84-1.43,1.46-2,1.35-1.03,2.2-1.36,1.78-.5,2.78-.5c1.24,0,2.58.31,4.02.93.63.29,1.09.44,1.39.44s.55-.09.75-.27.35-.55.47-1.1h.65Z"/>
      </g>
      <g>
        <path d="M382.02,18.85c.39.39.48.87.39,1.35-.03.12-.09.24-.12.36-.12.42-.24.84-.33,1.23-.12.42-.24.81-.36,1.23-.03.12-.12.24-.18.36-.12-.09-.27-.15-.33-.24-.48-.66-.93-1.32-1.41-1.95-.06-.09-.15-.18-.24-.24l-.18-.18v-.03h-.03c-.6-.45-1.14-.9-1.74-1.32-.87-.57-1.74-1.17-2.67-1.68-1.14-.6-2.28-1.26-3.6-1.41-.66-.06-1.29-.24-1.92-.21-.48.03-.93.3-1.38.51-.09.03-.15.27-.12.36.15.18.3.39.51.48.9.36,1.83.69,2.73,1.02.75.3,1.5.63,2.25.93.03,0,.06.03.09.03.03.03.09.03.12.06,1.02.57,2.07,1.11,3.03,1.77.78.57,1.47,1.29,2.19,1.95.36.33.69.69.99,1.05.24.3.48.57.69.87.12.15.24.3.33.45.09.12.12.21.15.3.12.33.03.66-.09.96-.03.12-.09.24-.15.33-.27.63-.57,1.23-.87,1.8-.33.6-.63,1.2-.96,1.8-.03.06-.09.09-.15.15-.06.03-.15.06-.21.12-.09-.15-.15-.24-.21-.39-.15-.33-.24-.66-.39-.96-.15-.24-.3-.51-.45-.75-.33-.54-.69-1.05-1.05-1.56-.42-.54-.9-1.05-1.38-1.53-.96-.99-1.89-1.98-2.91-2.88-.6-.54-1.32-.96-2.01-1.38-.57-.36-1.17-.66-1.77-.9-.63-.24-1.29-.42-1.98-.54-.27-.03-.57-.06-.66.21-.12.33-.09.63-.09.99v.03s.12.06.18.09c.48.3.99.6,1.5.9.24.15.51.27.75.45.3.21.57.45.84.66.9.66,1.83,1.26,2.67,1.98.78.66,1.5,1.38,2.22,2.1.27.27.51.54.78.78.81.75,1.35,1.74,1.92,2.64.33.51.63,1.05.87,1.59.21.48.27,1.02-.03,1.5-.33.57-.78,1.11-1.14,1.68-.42.66-.78,1.38-1.47,1.86-.15.12-.24.33-.42.6-.09-.27-.18-.42-.21-.6-.15-.81-.51-1.59-.81-2.34-.66-1.59-1.44-3.09-2.46-4.46-.99-1.32-1.98-2.58-3.24-3.68l-.03-.03c-.21-.18-.39-.36-.57-.57t-.03-.03c-.15-.18-.33-.39-.54-.54v-.03c-.21-.15-.42-.33-.66-.48-.48-.36-.96-.72-1.47-1.08-.09-.09-.18-.15-.27-.21h-.03s-.06-.03-.06-.03c-.12-.09-.24-.12-.36-.15-.15-.03-.3-.09-.45-.09s-.3.03-.42.21v.03c-.24.33-.15.69.06.99.15.24.36.45.57.63.6.6,1.2,1.17,1.8,1.74.39.39.75.81,1.11,1.2.66.75,1.35,1.5,1.95,2.31.57.75,1.11,1.56,1.56,2.4.9,1.71,1.59,3.48,2.04,5.33.21.84-.06,1.59-.81,2.04l-2.79,1.8-.63.36c-.21.12-.42.24-.63.33-.03-.03-.03-.09-.03-.12v-.09c.24-1.14,0-2.25-.27-3.33-.06-.18-.09-.39-.15-.57-.18-.75-.39-1.5-.63-2.22t-.03-.06c-.27-.75-.63-1.47-.99-2.19-.21-.45-.42-.9-.69-1.32l-.54-.99c-.84-1.53-1.71-3.06-3-4.22-.27-.24-.63-.39-.99-.45-.33-.06-.51.21-.57.51-.12.63.15,1.14.45,1.62.75,1.2,1.53,2.34,2.25,3.54.48.78.87,1.56,1.23,2.4.24.6.45,1.2.66,1.8.33,1.05.69,2.07.93,3.12.21.93.27,1.89.39,2.85.03.24-.06.48-.18.66s-.3.3-.48.36l-.54.18c-.39.09-.75.21-1.08.33-.18.09-.36.15-.51.24-.27.15-.51.27-.78.36s-.51.15-.81.18c-.12.03-.24.09-.36.15-.09.06-.21.12-.33.15-.36.09-.51-.09-.51-.45-.06-1.53-.09-3.06-.18-4.58-.09-1.47-.42-2.85-.87-4.22-.48-1.47-.93-2.97-1.92-4.19-.21-.27-.48-.48-.84-.39s-.51.33-.63.69c-.21.75,0,1.38.3,2.04.54,1.26,1.08,2.52,1.5,3.8.18.54.33,1.08.45,1.65.06.21.12.45.15.69.12.63.21,1.26.3,1.89l.18,1.89c.03.57-.15,1.17-.3,1.77,0,.06-.06.15-.15.21l-.03.03c-.06.06-.15.12-.21.12-.81.24-1.65.51-2.46.66-.39.06-.75.12-1.14.15s-.75.03-1.17.06c.03-.09.06-.15.06-.21.06-.12.09-.24.12-.36.03-.06.03-.15.06-.21.18-.78.45-1.59.51-2.37.09-1.05.06-2.1.03-3.15,0-.69-.12-1.35-.18-2.01-.06-.69-.33-1.32-.75-1.83v-.03c-.09-.09-.3-.21-.45-.21h-.06c-.15.06-.36.3-.36.48-.06.45-.12.96-.06,1.41.15,1.11.39,2.22.54,3.33.06.45.03.9,0,1.35l-.18,2.43c-.06.69-.3,1.02-1.08,1.17-.69.15-1.44.15-2.16.18-.42.03-.87.06-1.32.06s-.9,0-1.32.06c-.09,0-.18.03-.27.09-.06.03-.15.06-.21.09-.18.06-.33.18-.51.27-.24-.93-.93-1.59-1.47-2.34-.21-.27-.42-.54-.69-.72-.54-.36-.93-.84-1.23-1.41-.21-.33-.21-.66.03-.99.87-1.35,1.98-2.52,3.21-3.57.96-.81,1.98-1.62,2.91-2.46.42-.39.75-.87,1.08-1.35.15-.24.15-.45,0-.6-.03-.06-.09-.09-.15-.12s-.12-.06-.21-.09c-.12-.03-.21-.03-.3-.03-.45,0-.84.18-1.26.36-1.83.78-3.3,2.04-4.49,3.6-.87,1.14-1.47,2.43-2.16,3.68-.09.18-.09.39-.15.6,0,.06-.03.12-.06.12s-.06.03-.12.03-.09-.03-.15-.06c-.12-.09-.24-.18-.3-.3-.18-.27-.36-.54-.54-.78-.36-.51-.75-1.02-1.08-1.56-.18-.3-.33-.57-.45-.87-.3-.72-.33-1.32.21-1.95.81-.9,1.65-1.71,2.64-2.37.18-.12.39-.27.57-.39.42-.3.84-.57,1.26-.84l.81-.54.99-.63c.09-.06.15-.09.24-.15.21-.12.45-.24.72-.33.3-.12.66-.24.96-.39.9-.42,1.8-.78,2.7-1.2.27-.15.54-.27.81-.42.24-.15.51-.27.72-.45.21-.15.39-.51.39-.78,0-.12-.03-.18-.06-.24s-.09-.12-.15-.15c-.15-.09-.3-.09-.45-.12h-.54c-.27,0-.54,0-.81.06-1.95.39-3.74,1.23-5.51,2.13-.12.06-.21.12-.33.18-.27.12-.54.27-.81.42s-.54.3-.81.48c-.21.18-.45.33-.66.48-.03,0-.06.03-.06.03-.21.21-.42.39-.63.57h-.03v.03c-.48.45-.93.96-1.38,1.5-.18.21-.33.39-.51.6-.39.48-.75,1.05-1.08,1.59-.18.27-.33.57-.51.93-.12-.15-.27-.27-.33-.42-.33-.69-.66-1.35-.93-2.07-.3-.66-.54-1.35-.78-2.04-.15-.39-.06-.69.33-.93.18-.09.27-.33.42-.51.06-.12.12-.27.21-.36,1.26-1.02,2.61-1.98,4.13-2.61,1.5-.6,3-1.26,4.55-1.77.72-.24,1.5-.42,2.22-.6.78-.18,1.5-.36,2.25-.57.48-.12.9-.39,1.35-.63.36-.18.48-.54.51-1.05-.51-.06-1.02-.15-1.53-.15-1.62.03-3.21.48-4.76.93-1.23.36-2.46.78-3.66,1.29-1.17.51-2.16,1.32-3.12,2.16-.93.81-1.8,1.62-2.73,2.4-.3.3-.45.3-.57-.12-.27-.9-.54-1.8-.75-2.7-.12-.51-.15-1.05-.18-1.59-.06-.66.24-1.2.81-1.56.72-.42,1.47-.93,2.25-1.2,1.86-.63,3.74-1.2,5.66-1.68,1.83-.45,3.68-.72,5.57-.78.66-.03,1.32-.12,1.98-.27.36-.06.72-.24,1.02-.42.57-.36.54-1.02-.09-1.26s-1.29-.45-1.95-.48c-.87-.06-1.74-.03-2.61.03-1.08.06-2.13.21-3.21.42-.3.06-.6.12-.9.21-.6.15-1.17.36-1.77.6-.3.09-.57.21-.87.33-.27.12-.57.21-.84.36-.63.27-1.26.54-1.89.84-.54.27-1.05.66-1.59.99-.15.09-.3.21-.57.39-.09-.33-.15-.63-.21-.9-.09-.57-.18-1.11-.24-1.68-.03-.33-.06-.75.09-1.02.39-.75.78-1.47,1.32-2.07.63-.72,1.56-.96,2.43-1.23s1.77-.48,2.64-.66c.39-.09.78-.18,1.17-.21.12,0,.24-.03.36-.03,1.26-.03,2.55-.06,3.8-.03h.18c1.23.06,2.49.27,3.71.51.12.03.21.03.33.06.72.15,1.47.06,2.22.09.06,0,.18,0,.21-.06.18-.15.51-.39.48-.48s-.06-.18-.09-.24c-.09-.18-.18-.36-.3-.45-.06-.09-.09-.15-.15-.18h-.03c-1.53-.99-3.24-1.5-5.06-1.56-1.02-.03-2.01-.06-3,.03-.15,0-.27.03-.42.06-.81.09-1.62.24-2.4.45-.51.12-1.02.3-1.53.51-.3.12-.6.24-.87.39-.39.18-.81.36-1.2.54-.15.06-.33.15-.48.21-.06.03-.09.06-.12.06-.06.03-.12.06-.15.06-.06,0-.09-.03-.12-.09s-.03-.12-.03-.24c0-.72-.06-1.47.06-2.16.15-.84.45-1.53.93-2.01.12-.15.27-.24.42-.36.27-.21.63-.39.99-.51.18-.06.39-.12.6-.15.39-.09.81-.21,1.2-.3.33-.09.66-.18.99-.24.06,0,.15-.03.21-.03.3-.06.63-.09.93-.12.33-.03.66-.03.99-.03.57,0,1.14-.03,1.68.03.12,0,.24,0,.36.03.57.09,1.14.18,1.71.3s1.14.27,1.65.45c1.14.39,2.16,1.02,3.24,1.5.15.06.27.12.45.15.15.03.33.06.51.03.51,0,.78-.48.51-.93-.18-.3-.42-.63-.72-.84-.57-.45-1.2-.84-1.8-1.29-.48-.33-1.02-.54-1.56-.69-.57-.18-1.14-.3-1.68-.45-.93-.27-1.86-.33-2.82-.24-1.2.12-2.4.42-3.54.84-.12.06-.27.03-.42.03.03-.12.03-.27.09-.39.33-.57.57-1.2.96-1.71.99-1.26,2.25-2.13,3.86-2.28.51-.03,1.02.03,1.53.06.15,0,.3.03.45,0,1.29-.18,2.52.21,3.66.63.42.18.84.45,1.2.78.39.33.78.69,1.14.99.48.39.93.84,1.38,1.23.12.09.36.09.51.12,0-.03.03-.09.03-.12.03-.15.09-.3.03-.42-.12-.21-.24-.45-.36-.66-.21-.3-.39-.63-.6-.9-.69-.99-1.47-1.86-2.37-2.64l-.03-.03c-.21-.18-.39-.27-.63-.33-.36-.09-.75-.09-1.17-.06-.3,0-.63.03-.96.06t-.03-.09c.21-.18.45-.33.69-.48.21-.15.42-.3.63-.42.27-.15.54-.27.81-.36.03-.03.06-.03.09-.03.24-.09.48-.18.72-.24.78-.18,1.59-.21,2.4-.15h.18c.3.06.6.09.9.15,1.26.24,2.4.87,3.51,1.56.42.27.78.54,1.11.87.96.93,1.5,2.13,1.8,3.48.09.51.06.99-.03,1.5-.06.27-.15.54-.24.84s-.18.6-.24.9c-.21.9-.36,1.8-.57,2.73v.18c-.03.21-.03.42-.03.63,0,.39,0,.75.48.9.09.03.15.03.24.03.12.03.21.03.33-.03.24-.03.45-.15.63-.39.63-.75,1.08-1.62,1.56-2.46.9-1.56,1.89-3.09,3.48-4.1.63-.36,1.26-.66,1.92-.87.69-.21,1.38-.3,2.13-.3.78.03,1.5.15,2.19.39.66.24,1.29.6,1.92.96.96.63,1.92,1.32,2.58,2.37.39.57.78,1.14,1.26,1.65.15.18.33.33.51.51.51.42.63,1.02.81,1.62.24.84.36,1.68.24,2.61-.36-.27-.63-.54-.93-.78l-2.16-1.44c-.27-.18-.51-.39-.78-.51-.51-.24-1.08-.39-1.56-.63-.81-.36-1.68-.39-2.52-.42-.27-.03-.57-.06-.84-.09-.96-.12-1.83.33-2.67.84-.09.03-.15.12-.21.21-.09.15-.12.27-.03.36,0,.03.09.06.21.09.57.06,1.17.15,1.74.18,1.17.03,2.31.09,3.39.45,1.35.42,2.7.9,3.8,1.83.24.21.48.36.75.51.24.18.51.36.72.54.54.51,1.02,1.14,1.53,1.71ZM363.18,16.6c.54-.03.69-.21.75-.81-.39-.12-.78-.27-1.14-.36s-.69.12-.78.51c-.06.33.15.54.48.6.21.03.45.06.69.06ZM362.07,19c.15-.03.33-.24.33-.39,0-.12-.21-.27-.36-.36-.12-.09-.27-.09-.39-.12-.15-.03-.27-.06-.42-.09-.33-.03-.81.24-.81.51.03.36.27.54.6.54.36,0,.72,0,1.05-.09ZM360.6,21.93c.03-.36-.27-.33-.48-.42-.24-.03-.51-.21-.57.21-.06.33.06.48.33.57.24.09.69-.15.72-.36ZM357.04,13.15v-.03c-.06-.33-.03-.6-.12-.84-.27-.69-.96-1.17-1.74-1.14-.3.03-.51.21-.54.51,0,.36.42,1.02.75,1.11.51.15.99.24,1.65.39ZM356.11,16.63c.21-.48.15-.9-.24-1.05-.45-.15-.96-.21-1.47-.24-.12-.03-.3.15-.33.3-.06.09.06.3.18.36.57.3,1.17.63,1.86.63ZM354.88,31.76c.09-.27-.18-.78-.45-.81-.33,0-.51.21-.57.57-.06.3.12.69.39.72.33.03.54-.18.63-.48ZM353.86,20.97c.27-.12.54-.33.45-.69-.06-.36-.27-.6-.63-.69-.15,0-.3-.06-.45-.09v-.09c-.45.03-.93-.03-1.38.06-.36.09-.72.27-.75.72-.03.3.3.81.6.9.72.24,1.47.21,2.16-.12Z" fill="#39b54a"/>
        <path d="M379.69,21.18c-.06-.09-.15-.18-.24-.24.09.06.18.15.24.24Z"/>
        <polygon points="379.27 20.73 379.27 20.76 379.24 20.73 379.27 20.73"/>
        <path d="M378.67,30.92c-.06.06-.15.09-.21.15v-.03c.06-.06.15-.09.21-.12Z"/>
        <path d="M377.86,29.69c.15.3.24.63.39.96-.15-.33-.24-.66-.42-.96-.15-.24-.3-.51-.42-.75.15.24.3.51.45.75Z"/>
        <path d="M376.15,12.64c.48.24,1.05.39,1.56.63-.51-.24-1.08-.36-1.59-.6-.78-.39-1.65-.42-2.49-.45.84.03,1.71.06,2.52.42Z"/>
        <path d="M368.3,20.7c.6.24,1.2.54,1.77.9-.57-.33-1.14-.63-1.77-.9Z"/>
        <polygon points="367.49 27.09 367.52 27.12 367.49 27.12 367.49 27.09"/>
        <path d="M366.89,26.49s.03,0,.03.03c0,0,0-.03-.03-.03Z"/>
        <path d="M366.86,43.23v.03h-.03v-.15s0,.09.03.12Z"/>
        <path d="M366.41,39.13c-.18-.75-.42-1.5-.63-2.22.24.72.45,1.47.63,2.22Z"/>
        <path d="M366.35,25.92v.03c-.21-.18-.42-.33-.66-.51.24.15.45.33.66.48Z"/>
        <path d="M364.77,34.66c-.21-.45-.45-.9-.69-1.32.27.42.48.87.69,1.32Z"/>
        <path d="M364.23,44.52c.18-.06.36-.18.48-.36-.12.18-.3.3-.48.39-.18.06-.36.12-.54.15l.54-.18Z"/>
        <path d="M363.96,24.15c.09.06.18.12.27.21l-.27-.18-.03-.03h.03Z"/>
        <path d="M362.61,45.03c.33-.12.69-.24,1.08-.33-.39.12-.75.21-1.08.33Z"/>
        <path d="M362.64,24.09c.12-.18.27-.21.42-.21-.15,0-.3.06-.42.24v-.03Z"/>
        <path d="M361.32,45.63c.27-.09.51-.21.78-.36-.27.15-.51.27-.78.36Z"/>
        <path d="M360.51,45.81c.3-.03.54-.09.81-.18-.27.09-.51.15-.81.21-.12,0-.24.06-.36.12.12-.06.24-.12.36-.15Z"/>
        <path d="M359.55,27.68c.36.06.72.21.99.45-.27-.24-.66-.36-.99-.45Z"/>
        <path d="M357.28,46.92l.03-.03s0,.03-.03.03Z"/>
        <path d="M355.75,6.62c.06.12,0,.27-.03.42.03-.15.06-.3,0-.39-.12-.24-.24-.45-.33-.69.12.21.24.45.36.66Z"/>
        <path d="M353.47,47.85c-.39.03-.75.03-1.17.09v-.03c.42-.03.78-.03,1.17-.06Z"/>
        <path d="M352.48,47.34c-.03.12-.06.24-.12.36.06-.12.09-.24.12-.36Z"/>
        <path d="M352.39,2.4l.03.03h-.03c-.21-.15-.39-.27-.63-.36.24.06.42.15.63.33Z"/>
        <path d="M352.15,37.75v.03c-.12-.12-.3-.21-.45-.24.15,0,.36.12.45.21Z"/>
        <path d="M350.92,8.24c.6.45,1.23.84,1.8,1.29-.57-.45-1.2-.84-1.8-1.26-.48-.36-1.02-.54-1.56-.72.54.15,1.08.36,1.56.69Z"/>
        <path d="M351.88,14.92c-.09-.18-.18-.33-.3-.45.12.09.21.27.3.45Z"/>
        <path d="M351.43,14.29c.06.03.09.09.15.18-.06-.09-.12-.15-.18-.18h.03Z"/>
        <path d="M350.6,2.01c-.33.03-.63.06-.96.09v-.03c.33-.03.66-.06.96-.06Z"/>
        <path d="M349.94,28.79c.06.03.12.09.15.15-.03-.06-.09-.12-.15-.15Z"/>
        <path d="M349.49,28.67c.15.03.3.03.45.12-.15-.06-.3-.09-.45-.09-.06,0-.15,0-.24-.03h.24Z"/>
        <path d="M349.61,1.98q0,.06.03.09s-.03-.06-.06-.09h.03Z"/>
        <path d="M348.95,28.67c-.27,0-.54.03-.81.09-1.95.39-3.74,1.23-5.51,2.1,1.77-.9,3.57-1.74,5.51-2.13.27-.06.54-.06.81-.06Z"/>
        <path d="M348.41,34.9c.06.03.12.06.15.12-.06-.06-.09-.09-.15-.12Z"/>
        <path d="M348.41,34.9c-.06-.03-.12-.03-.21-.06s-.21-.06-.3-.06c.09,0,.18,0,.3.03.09.03.15.06.21.09Z"/>
        <path d="M347.03,47.94l-1.35.09c-.09,0-.15.03-.24.06.09-.06.18-.09.27-.09.42-.06.87-.06,1.32-.06Z"/>
        <path d="M346.34,12.73c-1.02,0-2.01-.03-3,.06-.15,0-.27.03-.42.03.15-.03.27-.06.42-.06.99-.09,1.98-.06,3-.03Z"/>
        <path d="M344.72,48.45c.18-.09.33-.21.51-.27-.18.09-.33.18-.51.27Z"/>
        <path d="M344.57,32.42c-.27.09-.51.21-.72.33.24-.12.48-.24.72-.33Z"/>
        <path d="M345.11,18.73c-1.05.09-2.13.24-3.21.42,1.08-.21,2.13-.36,3.21-.42Z"/>
        <path d="M341.82,34.07c-.42.27-.84.54-1.26.84.42-.27.84-.57,1.26-.84Z"/>
        <path d="M340.68,31.94c.27-.18.54-.33.81-.48-.27.15-.54.33-.81.48Z"/>
        <path d="M339.24,19.95c.6-.24,1.17-.45,1.77-.6-.6.18-1.17.39-1.77.6Z"/>
        <path d="M339,13.78c.51-.21,1.02-.39,1.53-.51-.51.15-1.02.33-1.53.54-.3.12-.57.24-.87.36.27-.15.57-.27.87-.39Z"/>
        <path d="M339.96,32.45s.03-.03.06-.03c-.03.03-.06.03-.06.03Z"/>
        <path d="M339.78,43.14c-.03.06-.09.06-.12.03.06,0,.09-.03.12-.03Z"/>
        <polygon points="339.33 33.02 339.3 33.05 339.3 33.02 339.33 33.02"/>
        <path d="M339.24,19.95c-.3.12-.57.24-.87.36-.27.12-.57.21-.84.33.27-.15.57-.24.84-.36.3-.12.57-.24.87-.33Z"/>
        <path d="M337.59,40.48c.33.54.72,1.05,1.08,1.56-.39-.51-.75-1.02-1.08-1.56Z"/>
        <path d="M336.93,14.71c-.15.09-.33.15-.48.24-.03.03-.09.03-.12.03.03,0,.06-.03.12-.06.15-.06.33-.15.48-.21Z"/>
        <path d="M336.06,14.95c.03.06.06.09.12.09-.06,0-.12-.03-.12-.09Z"/>
        <path d="M333.49,22.86c.27-.18.42-.3.57-.39-.15.12-.3.21-.57.39Z"/>
      </g>
    </g>
  </g>
</svg>