<?xml version="1.0" encoding="UTF-8"?>
<svg id="Layer_2" xmlns="http://www.w3.org/2000/svg" viewBox="0 0 381.1 29.66">
  <g id="Layer_1-2">
    <g>
      <path d="M24.24,0l.65,9.64h-.65c-.43-1.44-.96-2.67-1.58-3.7s-1.33-1.87-2.12-2.53-1.67-1.14-2.63-1.44-2.01-.46-3.14-.46c-1.9,0-3.57.46-5.04,1.39s-2.63,2.35-3.49,4.27c-.47,1.06-.84,2.26-1.09,3.61s-.38,2.85-.38,4.53c0,2.55.41,4.77,1.23,6.67.42.96.94,1.8,1.58,2.53s1.36,1.33,2.16,1.82,1.69.86,2.64,1.11,1.95.38,2.98.38c1.17,0,2.18-.12,3.03-.36s1.62-.6,2.32-1.09,1.37-1.1,2.02-1.84,1.36-1.6,2.14-2.59l.65.42c-.71,1.25-1.48,2.34-2.3,3.26s-1.71,1.68-2.68,2.28-2,1.04-3.12,1.33-2.33.43-3.63.43c-4.71,0-8.35-1.74-10.91-5.23-1.92-2.59-2.88-5.64-2.88-9.15,0-1.69.23-3.32.69-4.9.46-1.58,1.17-3.04,2.13-4.38.67-.95,1.43-1.79,2.29-2.54s1.78-1.37,2.78-1.88,2.04-.9,3.15-1.16S13.27.02,14.43.02c2.05,0,4.07.5,6.06,1.5.61.32,1.03.47,1.25.46.45,0,.82-.18,1.12-.55s.51-.84.64-1.41h.73V0Z" fill="#fff"/>
      <path d="M46.61,19.5h-10.97l-1.92,4.47c-.47,1.09-.71,1.91-.71,2.47,0,.22.04.43.11.62s.23.36.47.52.57.29,1,.4,1,.18,1.69.24v.77h-8.92v-.77c1.17-.21,1.94-.48,2.3-.82s.74-.84,1.12-1.52.8-1.53,1.24-2.56L41.99,0h.73l9.87,23.58c.4.98.78,1.76,1.12,2.35s.69,1.05,1.06,1.38.76.55,1.18.68.93.2,1.52.23v.77h-11.18v-.77c.56-.03,1.02-.09,1.4-.19s.67-.22.89-.38.37-.33.46-.52.14-.41.14-.65c0-.31-.05-.7-.2-1.18s-.36-1.06-.64-1.72l-1.71-4.08h-.02ZM46.02,17.95l-4.81-11.45-4.93,11.45h9.74Z" fill="#fff"/>
      <path d="M82.47,21.15l.69.15-2.42,7.69h-21.95v-.77h1.07c1.18,0,2.04-.39,2.57-1.17.29-.43.44-1.46.44-3.09V5.66c0-1.78-.2-2.89-.59-3.32-.54-.61-1.35-.92-2.42-.92h-1.07v-.77h12.83v.77c-.77,0-1.4.03-1.91.1s-.93.17-1.25.31-.59.3-.77.49-.34.39-.47.62c-.22.43-.33,1.5-.33,3.2v17.81c0,.49.02.91.05,1.25s.09.64.18.87.2.42.33.56.32.26.54.34c.33.14,1.42.21,3.26.21h2.07c2.16,0,3.69-.16,4.58-.48.45-.15.86-.36,1.25-.63s.77-.62,1.14-1.06.73-.97,1.09-1.6.72-1.39,1.1-2.28v.02Z" fill="#fff"/>
      <path d="M110.54.65v.77c-.6.11-1.11.27-1.54.48-.43.21-.8.48-1.12.82s-.6.74-.85,1.2-.49,1-.74,1.6l-9.89,24.12h-.77l-10.62-24.43c-.56-1.28-.94-2.05-1.15-2.3-.35-.43-.77-.77-1.27-1.01s-1.19-.4-2.07-.47v-.77h11.58v.77c-.67.07-1.21.16-1.62.27s-.73.25-.95.41-.37.34-.45.54-.11.43-.11.68c0,.71.32,1.8.96,3.26l7.21,16.62,6.69-16.41c.65-1.63.98-2.75.98-3.37,0-.43-.23-.84-.68-1.22s-1.23-.64-2.33-.78v-.77h8.74,0Z" fill="#fff"/>
      <path d="M125.13,19.5h-10.97l-1.92,4.47c-.47,1.09-.71,1.91-.71,2.47,0,.22.04.43.11.62s.23.36.47.52.57.29,1,.4,1,.18,1.69.24v.77h-8.92v-.77c1.17-.21,1.94-.48,2.3-.82s.74-.84,1.12-1.52.8-1.53,1.24-2.56L120.51,0h.73l9.87,23.58c.4.98.78,1.76,1.12,2.35s.69,1.05,1.06,1.38.76.55,1.18.68.93.2,1.52.23v.77h-11.18v-.77c.56-.03,1.02-.09,1.4-.19s.67-.22.89-.38.37-.33.46-.52.14-.41.14-.65c.01-.31-.05-.7-.2-1.18s-.36-1.06-.64-1.72l-1.71-4.08h-.02ZM124.55,17.95l-4.81-11.45-4.93,11.45h9.74Z" fill="#fff"/>
      <path d="M165.39,28.99h-7.57l-9.59-13.25c-.36.01-.69.02-.97.03s-.54.01-.76.01c-.18,0-.38,0-.59-.01s-.42-.02-.65-.03v8.23c0,1.78.2,2.89.59,3.32.53.61,1.32.92,2.38.92h1.11v.77h-12.14v-.77h1.07c1.18,0,2.04-.39,2.57-1.17.29-.43.44-1.46.44-3.07V5.66c0-1.78-.2-2.89-.59-3.32-.54-.61-1.35-.92-2.42-.92h-1.07v-.77h10.33c2.98,0,5.2.22,6.65.67.71.21,1.38.52,2,.94s1.16.91,1.63,1.48.84,1.21,1.11,1.92.41,1.47.41,2.28c0,.88-.14,1.7-.42,2.46s-.71,1.45-1.29,2.08-1.31,1.17-2.18,1.63-1.91.82-3.09,1.09l5.85,8.13c1.35,1.88,2.5,3.12,3.45,3.72.98.61,2.23,1,3.76,1.17v.77h-.02ZM145.26,14.42c.26,0,.49,0,.69.01s.36.01.48.01c1.35,0,2.54-.16,3.56-.47s1.88-.75,2.56-1.31,1.19-1.22,1.54-1.98.51-1.58.51-2.48-.15-1.68-.44-2.41-.71-1.36-1.24-1.89-1.18-.94-1.92-1.23-1.56-.44-2.46-.44c-.4,0-.88.03-1.42.09s-1.16.16-1.86.3v11.79h0Z" fill="#fff"/>
      <path d="M183.05.65h9.89v.77h-.54c-.17,0-.39.04-.68.13s-.59.2-.91.36-.65.35-.98.59-.64.5-.92.79c-.29.31-.61.7-.95,1.19-.34.49-.73,1.07-1.16,1.73l-6.83,10.76v7.11c0,1.74.2,2.83.59,3.26.52.59,1.35.88,2.51.88h.92v.77h-12.04v-.77h1c1.2,0,2.05-.36,2.55-1.09.31-.43.46-1.45.46-3.05v-6.71l-7.78-11.87c-.46-.71-.85-1.28-1.16-1.7s-.55-.73-.72-.91c-.08-.08-.22-.21-.42-.37s-.44-.32-.73-.49-.62-.31-.97-.43-.73-.18-1.12-.18v-.77h12.12v.77h-.63c-.31,0-.62.03-.93.1s-.6.18-.85.33-.46.34-.62.57-.24.51-.24.83c0,.5.42,1.41,1.27,2.72l5.91,9.13,5.56-8.74c.84-1.31,1.25-2.29,1.25-2.93-.03-.29-.09-.56-.19-.82s-.25-.47-.46-.65-.49-.32-.86-.42-.82-.15-1.36-.15v-.77l.02.03Z" fill="#fff"/>
      <path d="M211.62,2.19v11.2h6.23c.91,0,1.64-.08,2.21-.24s1.01-.41,1.33-.75.54-.77.67-1.29.21-1.13.25-1.84h.77v9.87h-.77c-.1-.7-.2-1.26-.29-1.7s-.2-.76-.29-.95c-.13-.25-.29-.47-.48-.66s-.45-.35-.75-.49-.68-.24-1.11-.31-.94-.1-1.53-.1h-6.23v9.34c0,1.24.06,2.01.17,2.3.06.13.13.24.21.36s.21.21.37.28.37.14.63.18.58.06.97.06h4.81c.82,0,1.51-.02,2.06-.07s1.03-.13,1.44-.25.77-.29,1.09-.5.64-.49.99-.83c.43-.42.87-.95,1.32-1.61s.89-1.42,1.34-2.3h.84l-2.45,7.11h-21.84v-.77h1c.26,0,.54-.03.84-.08s.57-.15.83-.27.49-.28.7-.47.36-.41.44-.66c.17-.43.25-1.34.25-2.74V5.58c0-1.78-.18-2.89-.54-3.32-.5-.56-1.34-.84-2.51-.84h-1v-.77h21.84v6.21h-.5c-.15-.75-.31-1.37-.46-1.86s-.33-.89-.52-1.21-.42-.57-.67-.76-.55-.36-.9-.51c-.57-.21-1.55-.31-2.95-.31h-7.78l-.03-.02Z" fill="#fff"/>
      <path d="M246.3,13.29l6.08,9.07c.85,1.27,1.58,2.3,2.21,3.08s1.13,1.35,1.54,1.68c.81.65,1.85,1.02,3.11,1.09v.77h-12.16v-.77c.96-.03,1.67-.17,2.12-.44s.68-.65.68-1.17c0-.18,0-.32,0-.43s-.03-.24-.1-.41-.21-.4-.4-.69-.47-.72-.85-1.27l-4.81-7.27-5.94,7.61c-.33.42-.59.75-.76,1s-.3.46-.39.63-.13.31-.15.43-.02.25-.02.41c0,.22.04.43.13.62s.23.35.44.49.49.25.84.34.79.14,1.32.16v.77h-10.05v-.77c.88-.07,1.65-.28,2.33-.63s1.33-.77,1.98-1.27c.79-.63,1.69-1.57,2.68-2.82l6.69-8.44-5.58-8.17c-1.53-2.22-2.82-3.66-3.87-4.35-1.07-.7-2.29-1.07-3.66-1.11v-.77h13.1v.77c-.56.03-1.02.09-1.4.19s-.68.22-.9.37-.38.31-.47.49-.14.37-.14.56c0,.53.33,1.28,1,2.26l4.35,6.5,5.04-6.37c.31-.39.55-.7.72-.94s.3-.44.39-.61.13-.31.15-.44.02-.26.02-.42c0-.32-.1-.61-.31-.86s-.45-.42-.73-.52c-.15-.06-.4-.1-.73-.14s-.75-.06-1.25-.07v-.77h10.05v.77c-.47.03-.9.09-1.27.18s-.72.21-1.03.34-.61.31-.89.5-.55.41-.82.65c-.6.53-1.48,1.53-2.65,3.01l-5.62,7.19h-.03Z" fill="#fff"/>
      <path d="M275.39,0C279.05,0,282.24,1.4,284.94,4.2c2.7,2.79,4.05,6.27,4.05,10.45s-1.36,7.88-4.08,10.72-6.01,4.26-9.87,4.26-7.2-1.39-9.84-4.16c-2.65-2.77-3.97-6.36-3.97-10.76s1.53-8.17,4.6-11.01c2.66-2.47,5.85-3.7,9.55-3.7h.01ZM274.99,1.53c-1.44,0-2.71.31-3.82.92s-2.05,1.49-2.81,2.62-1.34,2.51-1.73,4.13-.6,3.43-.6,5.43.2,3.82.59,5.48.96,3.08,1.72,4.27,1.7,2.12,2.81,2.78,2.4.99,3.87.99c1.31,0,2.53-.25,3.65-.75s2.09-1.28,2.92-2.33,1.47-2.39,1.93-4.02.7-3.57.7-5.83-.19-4.09-.57-5.78-.96-3.12-1.73-4.3-1.73-2.07-2.88-2.69-2.49-.93-4.02-.93h-.03Z" fill="#fff"/>
      <path d="M315.42.65v6.65h-.48c-.11-.89-.3-1.65-.55-2.27s-.6-1.12-1.01-1.5-.93-.66-1.53-.84-1.3-.26-2.09-.26h-3.99v21.65c0,1.74.19,2.83.56,3.26.52.59,1.33.88,2.45.88h.98v.77h-12.02v-.77h1c1.2,0,2.05-.36,2.55-1.09.31-.43.46-1.45.46-3.05V2.42h-3.41c-.86,0-1.62.06-2.26.19s-1.18.36-1.63.71-.81.84-1.09,1.48-.49,1.47-.63,2.49h-.79V.65h23.48Z" fill="#fff"/>
      <path d="M330,28.22v.77h-12.14v-.77h1c1.18,0,2.03-.34,2.55-1.02.33-.43.5-1.5.5-3.22V5.66c0-.67-.01-1.21-.04-1.63s-.08-.76-.16-1.03-.19-.48-.33-.64-.34-.3-.6-.44c-.61-.33-1.25-.5-1.92-.5h-1v-.77h12.14v.77h-1.02c-1.17,0-2.01.34-2.53,1.02-.35.43-.52,1.5-.52,3.22v18.31c0,.67.01,1.21.04,1.63s.08.76.16,1.02.19.48.34.64.36.31.61.45c.6.33,1.23.5,1.9.5h1.02Z" fill="#fff"/>
      <path d="M356.82,0l.65,9.64h-.65c-.43-1.44-.96-2.67-1.58-3.7s-1.33-1.87-2.12-2.53-1.67-1.14-2.63-1.44-2.01-.46-3.14-.46c-1.9,0-3.57.46-5.04,1.39s-2.63,2.35-3.49,4.27c-.47,1.06-.84,2.26-1.09,3.61s-.38,2.85-.38,4.53c0,2.55.41,4.77,1.23,6.67.42.96.94,1.8,1.58,2.53s1.36,1.33,2.16,1.82,1.69.86,2.64,1.11,1.95.38,2.98.38c1.17,0,2.18-.12,3.03-.36s1.62-.6,2.32-1.09,1.37-1.1,2.02-1.84,1.36-1.6,2.14-2.59l.65.42c-.71,1.25-1.48,2.34-2.3,3.26s-1.71,1.68-2.68,2.28-2,1.04-3.12,1.33-2.33.43-3.63.43c-4.71,0-8.35-1.74-10.91-5.23-1.92-2.59-2.88-5.64-2.88-9.15,0-1.69.23-3.32.69-4.9s1.17-3.04,2.13-4.38c.67-.95,1.43-1.79,2.29-2.54s1.78-1.37,2.78-1.88,2.04-.9,3.15-1.16,2.23-.4,3.39-.4c2.05,0,4.07.5,6.06,1.5.61.32,1.03.47,1.25.46.45,0,.82-.18,1.12-.55s.51-.84.64-1.41h.73V0Z" fill="#fff"/>
      <path d="M379.23,0v9.8h-.77c-.25-1.88-.7-3.38-1.36-4.49-.32-.56-.72-1.06-1.2-1.5s-1-.83-1.57-1.14-1.16-.56-1.8-.73-1.27-.26-1.91-.26c-.71,0-1.37.12-1.99.37-.62.25-1.15.57-1.6.97s-.8.87-1.06,1.39-.38,1.06-.38,1.62c0,.78.18,1.46.54,2.04s.86,1.11,1.49,1.6,1.38.96,2.24,1.42,1.79.95,2.79,1.48c1.13.6,2.2,1.18,3.22,1.76s1.91,1.2,2.69,1.89c.78.69,1.39,1.48,1.85,2.36s.69,1.95.69,3.19c0,1.06-.22,2.07-.66,3.02s-1.05,1.79-1.84,2.51-1.73,1.29-2.82,1.71-2.3.64-3.61.64c-.49,0-.91,0-1.25-.02s-.68-.05-1-.09-.65-.13-.99-.23-.75-.25-1.22-.43c-.33-.13-.68-.24-1.02-.34s-.67-.19-.96-.26-.54-.13-.74-.17-.33-.06-.39-.06c-.35,0-.62.1-.83.31s-.35.64-.45,1.3h-.77v-9.72h.77c.18,1.02.39,1.91.64,2.66s.52,1.4.83,1.91c.31.5.7.97,1.19,1.4s1.03.8,1.64,1.12,1.26.56,1.96.73,1.42.26,2.16.26c.88,0,1.67-.13,2.36-.38s1.29-.59,1.78-1.01.86-.92,1.12-1.48.39-1.15.39-1.77c0-.91-.19-1.67-.56-2.29s-.88-1.17-1.52-1.66-1.37-.95-2.22-1.4-1.73-.95-2.66-1.5c-1.06-.63-2.08-1.22-3.06-1.79s-1.85-1.18-2.6-1.86-1.36-1.45-1.81-2.31-.68-1.9-.68-3.09c0-1,.21-1.96.63-2.86s1-1.7,1.73-2.38,1.61-1.22,2.62-1.62,2.11-.6,3.31-.6c1.48,0,3.07.37,4.79,1.11.75.35,1.3.52,1.65.52s.66-.11.89-.32.41-.65.55-1.31h.77V0Z" fill="#fff"/>
    </g>
  </g>
</svg>